HIERARCHY
ROOT SpineBase
{
  OFFSET 0.000000 0.000000 0.000000
  CHANNELS 6 Xposition Yposition Zposition Zrotation Xrotation Yrotation
  JOINT SpineMid
  {
    OFFSET -0.000000 33.346478 -0.000000
    CHANNELS 3 Zrotation Xrotation Yrotation
    JOINT SpineShoulder
    {
      OFFSET -0.035404 24.658363 -0.760539
      CHANNELS 3 Zrotation Xrotation Yrotation
      JOINT Neck
      {
        OFFSET -0.034324 8.138436 -0.593988
        CHANNELS 3 Zrotation Xrotation Yrotation
        JOINT Head
        {
          OFFSET 0.619326 8.894970 5.422741
          CHANNELS 3 Zrotation Xrotation Yrotation
          End Site
          {
            OFFSET 0 0 0
          }
        }
      }
      JOINT ShoulderLeft
      {
        OFFSET -0.813853 -5.381605 -11.377860
        CHANNELS 3 Zrotation Xrotation Yrotation
        JOINT ElbowLeft
        {
          OFFSET 7.456071 -26.141667 -8.755853
          CHANNELS 3 Zrotation Xrotation Yrotation
          JOINT WristLeft
          {
            OFFSET 7.260975 -19.370081 0.226446
            CHANNELS 3 Zrotation Xrotation Yrotation
            JOINT HandLeft
            {
              OFFSET 0.213190 -8.054088 3.698974
              CHANNELS 3 Zrotation Xrotation Yrotation
              JOINT HandTipLeft
              {
                OFFSET 0.340127 -7.816987 0.795483
                CHANNELS 3 Zrotation Xrotation Yrotation
                End Site
                {
                  OFFSET 0 0 0
                }
              }
              JOINT ThumbLeft
              {
                OFFSET -2.870638 0.570624 2.921589
                CHANNELS 3 Zrotation Xrotation Yrotation
                End Site
                {
                  OFFSET 0 0 0
                }
              }
            }
          }
        }
      }
      JOINT ShoulderRight
      {
        OFFSET 7.206021 -10.252579 -15.382527
        CHANNELS 3 Zrotation Xrotation Yrotation
        JOINT ElbowRight
        {
          OFFSET 3.256847 6.037154 25.423615
          CHANNELS 3 Zrotation Xrotation Yrotation
          JOINT WristRight
          {
            OFFSET 1.228607 0.940276 26.798218
            CHANNELS 3 Zrotation Xrotation Yrotation
            JOINT HandRight
            {
              OFFSET -3.349344 7.918170 0.061847
              CHANNELS 3 Zrotation Xrotation Yrotation
              JOINT HandTipRight
              {
                OFFSET 1.364224 -0.201488 1.492708
                CHANNELS 3 Zrotation Xrotation Yrotation
                End Site
                {
                  OFFSET 0 0 0
                }
              }
              JOINT ThumbRight
              {
                OFFSET -0.524486 0.486573 -3.604038
                CHANNELS 3 Zrotation Xrotation Yrotation
                End Site
                {
                  OFFSET 0 0 0
                }
              }
            }
          }
        }
      }
    }
  }
  JOINT HipLeft
  {
    OFFSET -4.588643 1.433922 -8.272151
    CHANNELS 3 Zrotation Xrotation Yrotation
    JOINT KneeLeft
    {
      OFFSET 2.842331 -33.237750 1.463785
      CHANNELS 3 Zrotation Xrotation Yrotation
      JOINT AnkleLeft
      {
        OFFSET -5.342513 -33.962732 -0.788692
        CHANNELS 3 Zrotation Xrotation Yrotation
        JOINT FootLeft
        {
          OFFSET 1.569833 -7.467531 -0.341334
          CHANNELS 3 Zrotation Xrotation Yrotation
          End Site
          {
            OFFSET 0 0 0
          }
        }
      }
    }
  }
  JOINT HipRight
  {
    OFFSET 4.387624 0.305163 0.641028
    CHANNELS 3 Zrotation Xrotation Yrotation
    JOINT KneeRight
    {
      OFFSET -16.696984 -31.497692 9.669931
      CHANNELS 3 Zrotation Xrotation Yrotation
      JOINT AnkleRight
      {
        OFFSET -3.172805 -35.522585 3.224286
        CHANNELS 3 Zrotation Xrotation Yrotation
        JOINT FootRight
        {
          OFFSET -5.141731 -2.358943 -13.852921
          CHANNELS 3 Zrotation Xrotation Yrotation
          End Site
          {
            OFFSET 0 0 0
          }
        }
      }
    }
  }
}
MOTION
Frames: 9
Frame Time: 0.033333
10.358422 75.277019 335.102480 -0.552649 0.232062 -40.417641 0.571210 0.181638 40.417855 -1.009235 0.070081 -0.072755 -5.009890 0.059637 3.719628 0.000000 0.000000 0.000000 -1.047229 -1.266835 0.401266 0.345727 -0.989126 -1.212534 -2.200291 5.261292 -0.630630 7.594838 -0.286064 2.398860 0.000000 0.000000 0.000000 0.000000 0.000000 0.000000 -0.137270 3.055139 2.889951 0.740185 -3.372278 4.659489 -64.338658 42.946043 49.031254 -140.054860 -61.338383 104.445934 0.000000 0.000000 0.000000 0.000000 0.000000 0.000000 0.571210 0.181638 40.417855 0.061669 -0.940199 0.147016 6.820682 4.563347 -0.027222 0.000000 0.000000 0.000000 0.571210 0.181638 40.417855 2.254012 3.560610 -0.184425 3.271621 -10.206083 -30.000708 0.000000 0.000000 0.000000
10.152997 75.011629 335.124072 -0.957641 0.157878 -40.426377 0.030032 -0.095516 40.396248 -0.379740 -0.146283 -0.072135 -6.022895 -0.097574 4.609281 0.000000 0.000000 0.000000 -1.755603 -1.663467 0.617040 0.905248 -0.662642 -1.517697 -2.511463 4.790814 -0.911457 10.269197 0.423689 2.956838 0.000000 0.000000 0.000000 0.000000 0.000000 0.000000 0.240500 3.592331 2.655053 0.608290 -3.084087 6.761512 -63.529095 40.778656 42.745683 12.455417 -71.762289 -144.293260 0.000000 0.000000 0.000000 0.000000 0.000000 0.000000 0.831387 0.500813 40.424063 0.029347 -1.004555 0.157640 6.297973 4.497708 -0.013588 0.000000 0.000000 0.000000 0.438542 -0.212642 40.344426 2.968604 3.598475 -0.091564 2.257826 -4.680153 -26.532663 0.000000 0.000000 0.000000
10.117544 74.435627 335.142566 -1.114617 0.066703 -41.036637 0.034120 -0.096731 41.000779 -0.555779 -0.182094 -0.092554 -7.063464 -0.533078 5.495670 0.000000 0.000000 0.000000 -2.799933 -2.035496 0.938516 1.787629 -0.186220 -1.866235 -3.113358 4.778184 -1.354300 12.074750 0.190091 3.555760 0.000000 0.000000 0.000000 0.000000 0.000000 0.000000 0.649047 3.954224 2.260833 0.392589 -2.432710 8.683255 -59.506399 35.684835 30.598079 35.967450 -55.576203 -121.933693 0.000000 0.000000 0.000000 0.000000 0.000000 0.000000 0.884574 0.681458 41.032025 -0.001305 -0.995678 0.156679 7.149784 5.424464 0.048633 0.000000 0.000000 0.000000 0.277983 -0.502865 40.917088 3.116850 2.981856 0.002681 2.590515 -6.160416 -24.221002 0.000000 0.000000 0.000000
9.557673 74.040273 334.797145 -1.927485 0.431497 -40.850960 0.536758 0.010798 40.807368 -0.511621 -0.343798 -0.108850 -8.008195 -1.190020 6.300252 0.000000 0.000000 0.000000 -4.014700 -2.449233 1.314600 2.858801 0.566313 -2.154607 -3.779951 5.090205 -1.927871 13.139566 -0.781150 4.177812 0.000000 0.000000 0.000000 0.000000 0.000000 0.000000 1.238066 3.923322 1.310940 0.038885 -1.607461 10.288526 -56.025226 26.380249 15.440523 42.025368 -38.421182 -117.024938 0.000000 0.000000 0.000000 0.000000 0.000000 0.000000 3.122671 1.723816 40.854507 -1.620648 -0.701913 0.121586 7.684456 5.624971 0.021618 0.000000 0.000000 0.000000 1.541494 -0.351243 40.986412 2.936184 3.385409 -0.272887 1.924826 -4.654359 -21.459784 0.000000 0.000000 0.000000
9.328883 73.313687 334.547168 -2.420744 0.467609 -41.148093 0.705568 0.531918 41.110037 -0.687427 -0.600638 -0.130580 -8.931072 -1.851092 6.985876 0.000000 0.000000 0.000000 -5.429676 -2.935632 1.702129 4.021584 1.496647 -2.393613 -4.759298 4.805116 -2.787075 15.153898 -1.615208 4.988722 0.000000 0.000000 0.000000 0.000000 0.000000 0.000000 1.672567 4.098062 0.338596 -0.171588 -1.878654 11.414906 -53.334114 17.007852 2.701289 41.960686 -27.168048 -110.909829 0.000000 0.000000 0.000000 0.000000 0.000000 0.000000 4.622566 1.940547 41.073689 -2.479846 0.138895 0.172339 8.457408 5.342603 -0.073088 0.000000 0.000000 0.000000 1.699522 -0.742802 41.276520 3.563403 3.059278 -0.220300 2.755326 -9.953503 -18.637890 0.000000 0.000000 0.000000
8.360190 73.303327 334.816643 -3.530732 -0.025487 -41.558040 0.700443 0.979976 41.486933 -0.224245 -0.473551 -0.128180 -9.126372 -2.192735 7.348359 0.000000 0.000000 0.000000 -6.489645 -3.162420 2.100490 4.738069 2.459958 -2.514361 -4.662583 6.030683 -3.262502 16.543972 -4.208341 5.763997 0.000000 0.000000 0.000000 0.000000 0.000000 0.000000 2.101313 4.099660 0.095993 -0.242923 -1.806354 11.636952 -51.510250 15.184837 0.317842 39.708238 -26.460093 -111.480699 0.000000 0.000000 0.000000 0.000000 0.000000 0.000000 6.529380 4.465465 41.375068 -4.648475 -0.025290 0.105979 9.628235 5.735751 -0.151538 0.000000 0.000000 0.000000 2.537107 1.476759 41.624637 2.728861 2.463918 -0.156378 2.846982 -11.069367 -18.799249 0.000000 0.000000 0.000000
6.974955 73.759547 335.345797 -4.912489 -0.680830 -42.071248 0.604786 1.156886 41.934004 0.699692 -0.040994 -0.107688 -9.043096 -2.421498 7.579839 0.000000 0.000000 0.000000 -7.325487 -3.312111 2.474231 5.477846 3.540147 -2.508129 -4.338787 7.709798 -3.612295 16.465365 -8.464520 6.300805 0.000000 0.000000 0.000000 0.000000 0.000000 0.000000 2.381532 4.112179 0.603049 -0.076573 -2.114176 11.002726 -53.090856 20.980304 7.821991 39.850465 -35.215273 -113.113661 0.000000 0.000000 0.000000 0.000000 0.000000 0.000000 8.691476 8.010093 41.630886 -7.398552 -0.588318 -0.044090 10.457014 6.241589 -0.196567 0.000000 0.000000 0.000000 3.789868 5.262256 41.956480 0.723035 1.109379 -0.050448 1.594123 -8.806012 -11.163266 0.000000 0.000000 0.000000
5.315885 74.424649 336.083412 -6.501437 -1.494536 -42.550193 0.463119 1.184493 42.310722 1.887440 0.584603 -0.086049 -8.879974 -2.630440 7.821386 0.000000 0.000000 0.000000 -7.795601 -3.331438 2.798266 5.549102 4.379708 -2.465826 -3.915075 8.193606 -4.100624 16.936459 -9.428197 6.772328 0.000000 0.000000 0.000000 0.000000 0.000000 0.000000 2.862059 4.221088 0.617609 -0.074247 -2.182676 11.074778 -53.044222 21.032227 7.792656 39.809422 -35.188905 -113.115561 0.000000 0.000000 0.000000 0.000000 0.000000 0.000000 10.880015 12.298897 41.647325 -10.469861 -1.520930 -0.298551 12.267565 8.711956 -0.152259 0.000000 0.000000 0.000000 5.352755 9.641775 42.207022 -1.764014 -0.243328 -0.118737 2.743624 -14.175224 -4.079816 0.000000 0.000000 0.000000
3.628202 75.334393 336.950252 -8.075716 -2.392245 -43.171007 0.258440 1.041247 42.798144 3.119975 1.264037 -0.079314 -8.357231 -2.696188 7.935207 0.000000 0.000000 0.000000 -7.927730 -3.205795 3.083966 5.846667 5.176628 -2.360204 -3.583702 8.278723 -4.476861 17.790255 -10.085926 7.186600 0.000000 0.000000 0.000000 0.000000 0.000000 0.000000 3.438030 4.443590 0.640749 -0.072596 -2.231528 11.127119 -53.009298 21.073992 7.775675 39.777316 -35.176646 -113.117930 0.000000 0.000000 0.000000 0.000000 0.000000 0.000000 12.680176 16.677518 41.654596 -13.305905 -2.664048 -0.626859 13.212742 10.320002 -0.150811 0.000000 0.000000 0.000000 6.723111 14.625607 42.315092 -4.364052 -1.549328 -0.146809 3.738513 -18.027986 -2.897162 0.000000 0.000000 0.000000
